<svg id="Layer_1" data-name="Layer 1" xmlns="http://www.w3.org/2000/svg" xmlns:xlink="http://www.w3.org/1999/xlink" viewBox="0 0 134.3 130.83"><defs><style>.cls-1{fill:#fff;}.cls-2{fill:url(#radial-gradient);}.cls-3{fill:url(#linear-gradient);}.cls-4{fill:url(#linear-gradient-2);}.cls-5{fill:url(#linear-gradient-3);}.cls-6{fill:url(#linear-gradient-4);}.cls-7{fill:url(#linear-gradient-5);}.cls-8{fill:url(#linear-gradient-6);}.cls-9{fill:url(#linear-gradient-7);}.cls-10{fill:url(#linear-gradient-8);}</style><radialGradient id="radial-gradient" cx="2939.55" cy="519.04" r="618.19" gradientTransform="matrix(0.39, 0, 0, -0.38, -850.5, 220.96)" gradientUnits="userSpaceOnUse"><stop offset="0.4" stop-color="#b4bdbe"/><stop offset="0.85" stop-color="#fff"/></radialGradient><linearGradient id="linear-gradient" x1="232.82" y1="294.6" x2="232.82" y2="210.02" gradientTransform="matrix(1, -0.03, -0.03, -1, 12.55, 357.88)" gradientUnits="userSpaceOnUse"><stop offset="0" stop-color="#f8f3ef"/><stop offset="1" stop-color="#de903a"/></linearGradient><linearGradient id="linear-gradient-2" x1="205.54" y1="189.46" x2="249.85" y2="260.62" xlink:href="#linear-gradient"/><linearGradient id="linear-gradient-3" x1="215.82" y1="199.67" x2="241.39" y2="222.25" xlink:href="#linear-gradient"/><linearGradient id="linear-gradient-4" x1="178.01" y1="233.05" x2="237.6" y2="217.76" gradientTransform="matrix(1, -0.03, -0.03, -1, 12.55, 357.88)" gradientUnits="userSpaceOnUse"><stop offset="0" stop-color="#fff"/><stop offset="1" stop-color="#272525"/></linearGradient><linearGradient id="linear-gradient-5" x1="253.72" y1="191.84" x2="235.18" y2="246.83" gradientTransform="matrix(1, 0, 0, -1, 0, 388)" xlink:href="#linear-gradient-4"/><linearGradient id="linear-gradient-6" x1="202.47" y1="184.79" x2="299.41" y2="261.06" xlink:href="#linear-gradient-4"/><linearGradient id="linear-gradient-7" x1="252.9" y1="271.83" x2="260.82" y2="269.8" gradientTransform="matrix(1, 0, 0, -1, 0, 388)" gradientUnits="userSpaceOnUse"><stop offset="0.54" stop-color="#3d3b3b"/><stop offset="1" stop-color="#272525"/></linearGradient><linearGradient id="linear-gradient-8" x1="275.71" y1="199.43" x2="174.23" y2="192.57" xlink:href="#linear-gradient-4"/></defs><g id="Layer_1-2" data-name="Layer 1"><path id="Border" class="cls-1" d="M306.75,124.79c0,36-29.81,65.22-66.63,65.22s-66.67-29.2-66.67-65.22,29.85-65.2,66.65-65.2S306.75,88.77,306.75,124.79Z" transform="translate(-172.45 -59.59)"/><path class="cls-2" d="M305.71,125.2c0,36-29.83,65.22-66.62,65.22s-66.64-29.22-66.64-65.22S202.29,60,239.08,60,305.71,89.09,305.71,125.2Z" transform="translate(-172.45 -59.59)"/><g id="BackGround"><path class="cls-3" d="M296.3,123.26a57.11,57.11,0,0,1-4.64,24.19s-.05.08-.07.13a57.09,57.09,0,0,1-7.14,12.13,58.47,58.47,0,0,1-7.61,8.12h0a58.27,58.27,0,0,1-12,8.1,55.27,55.27,0,0,1-18.53,5.6h0c-1.84.23-3.7.38-5.59.43a58.3,58.3,0,0,1-12.09-1A56.66,56.66,0,0,1,216,177c-.81-.36-1.6-.73-2.39-1.12A57.42,57.42,0,0,1,198.52,165c-1-1-1.91-2-2.82-3.06a57.1,57.1,0,0,1-11.6-21.69c-.15-.52-.3-1-.42-1.56a54.73,54.73,0,0,1-1.48-8.7c0-.53-.09-1.07-.13-1.61,0-.7-.08-1.4-.1-2.12a57.24,57.24,0,0,1,114.43-3.06Z" transform="translate(-172.45 -59.59)"/><path class="cls-4" d="M280.29,141a53.4,53.4,0,0,1-6,22.15l-.08.12A53.1,53.1,0,0,1,266.69,174c-.61.67-1.23,1.34-1.87,2a56.64,56.64,0,0,1-10.06,3.91c-.89.26-1.77.48-2.67.69a57.15,57.15,0,0,1-5.8,1h0c-1.84.23-3.7.38-5.59.43a58.3,58.3,0,0,1-12.09-1A56.66,56.66,0,0,1,216,177.08c-.81-.36-1.6-.73-2.39-1.12a57.42,57.42,0,0,1-15.06-11c-1-1-1.91-2-2.82-3.06a57.1,57.1,0,0,1-11.6-21.69c-.15-.52-.3-1-.42-1.56s-.24-1-.34-1.44a52.69,52.69,0,0,1-1.14-7.26c-.05-.53-.09-1.07-.13-1.61-.05-.7-.08-1.4-.1-2.12a57,57,0,0,1,3.5-21.36,53.34,53.34,0,0,1,94.89,36Z" transform="translate(-172.45 -59.59)"/><path class="cls-5" d="M261.29,157.08a42.73,42.73,0,0,1-3.84,17.84.15.15,0,0,0-.06.09,42.92,42.92,0,0,1-2.64,4.85c-.89.26-1.77.48-2.67.69a57.15,57.15,0,0,1-5.8,1h0c-1.84.23-3.7.38-5.59.43a58.3,58.3,0,0,1-12.09-1,56.66,56.66,0,0,1-12.66-3.93c-.81-.36-1.6-.73-2.39-1.12a57.42,57.42,0,0,1-15.06-11c-1-1-1.91-2-2.82-3.06a57.1,57.1,0,0,1-11.6-21.69c-.15-.52-.3-1-.42-1.56s-.24-1-.34-1.44a40.35,40.35,0,0,1,1.23-4.87A42.4,42.4,0,0,1,261.36,157Z" transform="translate(-172.45 -59.59)"/></g><g id="Wolf"><path class="cls-6" d="M249.77,109.46l-8.56,14.62L204.63,170.6a57.31,57.31,0,0,1-20.76-30.28c-.15-.52-.29-1-.42-1.57a54.73,54.73,0,0,1-1.48-8.7c13-24.24,49.72-27.46,49.72-27.46.69-4.17,5.62-5.1,9.55-7.29a18.84,18.84,0,0,0,6.33-6.53Z" transform="translate(-172.45 -59.59)"/><path class="cls-7" d="M276.69,167.84h0a57.08,57.08,0,0,1-30.55,13.74h0c-1.84.22-3.71.37-5.6.42a59,59,0,0,1-12.09-.95,57.2,57.2,0,0,1-12.66-3.94c.08-.91.18-2,.28-3.15,1.83-21.15-16.37-4.68.77-20.16s.46-11.52,17.14-15.48c13-3.1,15-3.75,15.24-3.89l.61,10.36s-9.59,12.54-1.84,21.6S276.69,167.84,276.69,167.84Z" transform="translate(-172.45 -59.59)"/><path class="cls-8" d="M285.45,133.38a15.93,15.93,0,0,1-5,8.53,12.84,12.84,0,0,1-6.33,2.8c-5.78.89-11.76.68-17.59.46-7.38-.28-14.28-1.41-21.3,1.56a19.35,19.35,0,0,0-10,9.89,16.43,16.43,0,0,0,1.65,15.52c3.39,5.19,8.82,7.75,14.85,8.49a44,44,0,0,0,10.19-.08l-1,.21c-1.58.35-3.2.62-4.83.83h0c-1.84.22-3.71.37-5.6.42a59,59,0,0,1-12.09-.95,57.2,57.2,0,0,1-12.66-3.94c-.81-.35-1.6-.73-2.38-1.12a57.53,57.53,0,0,1-15.07-10.95c-.37-10.31,1.35-22.35,8.79-32.24,13-17.31,36.09-22.06,36.09-22.06s-4-2.93-5.44-3.37c0,0,11.18-.46,9.84-18.62,0,0,4.93,14,4.62,17.89,0,0,9.49,6.62,10.35,8.82s1.51,6.92,4.18,8.58S285.45,133.38,285.45,133.38Z" transform="translate(-172.45 -59.59)"/><path class="cls-9" d="M253.26,114.79a14.65,14.65,0,0,1,5,1.4c1.62,1,2.2,3.58,2.2,3.58l-4.16-1.17C255.45,118.39,253.26,114.79,253.26,114.79Z" transform="translate(-172.45 -59.59)"/><path class="cls-10" d="M280.45,141.91a12.84,12.84,0,0,1-6.33,2.8c-5.78.89-11.76.68-17.59.46-7.38-.28-14.28-1.41-21.3,1.56a19.35,19.35,0,0,0-10,9.89,16.43,16.43,0,0,0,1.65,15.52c3.39,5.19,8.82,7.75,14.85,8.49a44,44,0,0,0,10.19-.08l-1,.21c-27,5.66-38.45-15.46-33.48-34.48C220.92,133,234.15,133,234.15,133c-1.06-1.42-9-1.75-9-1.75,17-8.18,32.84,5.82,41.85,8.82S280.45,141.91,280.45,141.91Z" transform="translate(-172.45 -59.59)"/></g></g></svg>